<svg width="28" height="16" viewBox="0 0 28 16" fill="none" xmlns="http://www.w3.org/2000/svg">
<path d="M4.1661 5.94481H1.44396C1.08298 5.94481 0.736785 6.08821 0.481534 6.34346C0.226284 6.59871 0.0828857 6.9449 0.0828857 7.30588C0.0828857 7.66686 0.226284 8.01305 0.481534 8.2683C0.736785 8.52355 1.08298 8.66695 1.44396 8.66695H4.1661C4.52708 8.66695 4.87327 8.52355 5.12852 8.2683C5.38377 8.01305 5.52717 7.66686 5.52717 7.30588C5.52717 6.9449 5.38377 6.59871 5.12852 6.34346C4.87327 6.08821 4.52708 5.94481 4.1661 5.94481ZM27.0049 2.07937V1.9977C26.6149 1.52104 26.1222 1.13876 25.5636 0.87949C25.0049 0.620215 24.3949 0.49066 23.7791 0.500524H12.9858C11.9857 0.491541 11.0171 0.849932 10.2637 1.50772V1.50772C9.56003 2.12773 9.09739 2.97591 8.95707 3.9032L7.75933 10.7086C7.65633 11.2963 7.68339 11.8994 7.83859 12.4755C7.99379 13.0516 8.27336 13.5868 8.65764 14.0432C9.03991 14.4981 9.51686 14.8641 10.0552 15.1156C10.5935 15.3672 11.1803 15.4982 11.7745 15.4995H22.5814C23.5522 15.5142 24.4964 15.1825 25.2447 14.5639C25.993 13.9453 26.4964 13.0803 26.6646 12.1241L27.8624 5.31872C27.9567 4.74884 27.929 4.16543 27.7812 3.60703C27.6334 3.04863 27.3688 2.52794 27.0049 2.07937V2.07937ZM23.2755 3.22267L18.6479 6.97922C18.3743 7.19974 18.026 7.30588 17.6759 7.27544C17.3258 7.245 17.0011 7.08033 16.7696 6.8159L13.5983 3.22267H23.2755ZM23.9289 11.6205C23.8738 11.9401 23.7064 12.2294 23.4568 12.4366C23.2073 12.6437 22.892 12.7549 22.5678 12.7502H11.7745C11.5768 12.7485 11.3819 12.7038 11.2033 12.6192C11.0246 12.5346 10.8666 12.4121 10.7401 12.2602C10.6133 12.1091 10.5208 11.9322 10.4691 11.7419C10.4174 11.5515 10.4077 11.3522 10.4406 11.1577L11.5295 4.99206L14.728 8.61251C15.4242 9.40379 16.3994 9.89523 17.4496 9.98401C18.4998 10.0728 19.5437 9.75206 20.3629 9.08889L25.0449 5.26427L23.9289 11.6205ZM5.52717 0.500524H1.44396C1.08298 0.500524 0.736785 0.643922 0.481534 0.899173C0.226284 1.15442 0.0828857 1.50062 0.0828857 1.8616C0.0828857 2.22257 0.226284 2.56877 0.481534 2.82402C0.736785 3.07927 1.08298 3.22267 1.44396 3.22267H5.52717C5.88815 3.22267 6.23434 3.07927 6.48959 2.82402C6.74485 2.56877 6.88824 2.22257 6.88824 1.8616C6.88824 1.50062 6.74485 1.15442 6.48959 0.899173C6.23434 0.643922 5.88815 0.500524 5.52717 0.500524Z" fill="white"/>
</svg>
