<svg width="30" height="30" viewBox="0 0 30 30" fill="none" xmlns="http://www.w3.org/2000/svg">
<path d="M13.5215 23.5059C13.5215 23.3592 13.4892 23.2144 13.4269 23.0816C13.3647 22.9488 13.274 22.8313 13.1613 22.7375C13.0486 22.6436 12.9166 22.5757 12.7748 22.5386C12.6329 22.5014 12.4846 22.4959 12.3403 22.5225C11.0313 22.7627 9.37843 22.7988 8.93897 21.5645C8.55578 20.6085 7.92105 19.774 7.10206 19.1495C7.04363 19.1177 6.98794 19.0811 6.93556 19.0401C6.86389 18.851 6.73658 18.6881 6.57043 18.5729C6.40428 18.4576 6.2071 18.3955 6.00489 18.3946H6.00001C5.73561 18.3945 5.48194 18.4991 5.29453 18.6856C5.10711 18.8721 5.00121 19.1253 5.00001 19.3897C4.9961 20.2051 5.81101 20.7276 6.14161 20.9043C6.53146 21.296 6.84477 21.7571 7.06544 22.2637C7.4297 23.2872 8.48829 24.8399 11.5313 24.6397C11.5323 24.6749 11.5332 24.7081 11.5337 24.7383L11.5381 25.0059C11.5381 25.2711 11.6435 25.5255 11.831 25.713C12.0185 25.9006 12.2729 26.0059 12.5381 26.0059C12.8033 26.0059 13.0577 25.9006 13.2452 25.713C13.4327 25.5255 13.5381 25.2711 13.5381 25.0059L13.5332 24.6876C13.5283 24.4981 13.5215 24.2236 13.5215 23.5059ZM24.1885 8.37987C24.2202 8.25487 24.2515 8.1162 24.2788 7.95995C24.4406 6.84554 24.2996 5.70814 23.8706 4.66695C23.8165 4.53121 23.7333 4.40896 23.627 4.30875C23.5206 4.20855 23.3936 4.13282 23.2549 4.08688C22.8989 3.96676 21.5845 3.73043 19.0708 5.33688C16.9814 4.84517 14.8063 4.84517 12.7168 5.33688C10.2134 3.75396 8.90577 3.96876 8.55323 4.08204C8.4111 4.12612 8.28063 4.20144 8.17138 4.3025C8.06214 4.40355 7.97689 4.52776 7.92188 4.66604C7.48419 5.72722 7.34472 6.88781 7.51856 8.02248C7.54298 8.15041 7.56934 8.26858 7.59669 8.37697C6.76826 9.48041 6.327 10.8263 6.34132 12.2061C6.33862 12.5139 6.35281 12.8217 6.3838 13.1279C6.7178 17.7305 9.7178 19.1123 11.8081 19.5869C11.7647 19.7119 11.7251 19.8457 11.69 19.9873C11.6273 20.2446 11.6692 20.5163 11.8066 20.7427C11.9439 20.9691 12.1654 21.1318 12.4225 21.1952C12.6797 21.2585 12.9514 21.2173 13.1782 21.0806C13.405 20.9439 13.5683 20.7228 13.6323 20.4658C13.696 20.1326 13.8591 19.8266 14.1001 19.5879C14.2459 19.4603 14.3514 19.2931 14.4039 19.1066C14.4563 18.9201 14.4535 18.7224 14.3956 18.5375C14.3378 18.3526 14.2275 18.1885 14.0781 18.0652C13.9287 17.9419 13.7467 17.8646 13.5542 17.8428C10.1001 17.4483 8.60059 16.041 8.37501 12.9444C8.35003 12.6991 8.33878 12.4526 8.34132 12.2061C8.32528 11.2227 8.65015 10.2642 9.26075 9.49319C9.32211 9.41281 9.38746 9.33556 9.45655 9.26174C9.57899 9.12474 9.6613 8.95666 9.69447 8.77594C9.72763 8.59523 9.71036 8.40887 9.64455 8.23733C9.57709 8.05686 9.52514 7.87096 9.48928 7.68166C9.40782 7.14337 9.43454 6.59425 9.56788 6.06642C10.437 6.31189 11.255 6.71146 11.9829 7.2461C12.1033 7.32627 12.2395 7.37963 12.3823 7.40254C12.5251 7.42546 12.6711 7.4174 12.8105 7.37892C14.8316 6.83042 16.9624 6.83076 18.9834 7.37992C19.1235 7.41836 19.2704 7.42596 19.4138 7.40219C19.5571 7.37842 19.6937 7.32384 19.8139 7.24223C20.5384 6.70537 21.353 6.30223 22.2192 6.0518C22.352 6.56695 22.3817 7.10325 22.3066 7.62992C22.2704 7.83745 22.2138 8.04092 22.1377 8.23735C22.0719 8.40889 22.0546 8.59525 22.0878 8.77596C22.1209 8.95668 22.2032 9.12476 22.3257 9.26176C22.4028 9.34867 22.48 9.44242 22.5493 9.53031C23.1556 10.2882 23.475 11.2358 23.4512 12.2061C23.453 12.4657 23.4404 12.7252 23.4136 12.9834C23.1934 16.0391 21.688 17.4473 18.2178 17.8428C18.0252 17.8647 17.8432 17.9421 17.6938 18.0656C17.5445 18.189 17.4342 18.3532 17.3764 18.5382C17.3186 18.7232 17.3159 18.921 17.3684 19.1075C17.4209 19.294 17.5265 19.4613 17.6724 19.5889C17.921 19.8339 18.0845 20.1522 18.1387 20.4971C18.2063 20.7648 18.2373 21.0404 18.231 21.3164V23.6504C18.2212 24.2979 18.2212 24.7832 18.2212 25.0059C18.2212 25.2711 18.3265 25.5254 18.5141 25.713C18.7016 25.9005 18.956 26.0059 19.2212 26.0059C19.4864 26.0059 19.7408 25.9005 19.9283 25.713C20.1158 25.5254 20.2212 25.2711 20.2212 25.0059C20.2212 24.7891 20.2212 24.3135 20.231 23.666V21.3164C20.239 20.8742 20.1869 20.433 20.0762 20.0049C20.0445 19.8643 20.0057 19.7255 19.96 19.5889C21.4812 19.3362 22.8634 18.5518 23.8606 17.3755C24.8577 16.1992 25.4051 14.7072 25.4053 13.1651C25.4382 12.8465 25.4535 12.5263 25.4512 12.2061C25.4734 10.8248 25.0284 9.47657 24.1885 8.37987Z" fill="#5671A6"/>
</svg>
